<?xml version="1.0" encoding="UTF-8" ?>
<!DOCTYPE svg PUBLIC "-//W3C//DTD SVG 1.1//EN" "http://www.w3.org/Graphics/SVG/1.1/DTD/svg11.dtd">
<svg width="960pt" height="540pt" viewBox="0 0 960 540" version="1.1" xmlns="http://www.w3.org/2000/svg">
<g id="#010102ff">
<path fill="#010102" opacity="1.00" d=" M 0.00 0.00 L 120.00 0.00 C 120.00 133.00 120.01 266.00 120.00 399.00 C 120.04 403.55 119.71 408.13 120.26 412.66 C 156.82 412.96 193.42 412.67 230.00 412.80 C 235.39 412.68 240.81 412.55 246.14 413.51 C 245.63 418.99 245.69 424.50 245.74 430.00 C 245.78 466.67 245.69 503.33 245.78 540.00 L 0.00 540.00 L 0.00 0.00 Z" />
<path fill="#010102" opacity="1.00" d=" M 840.00 0.00 L 960.00 0.00 L 960.00 540.00 L 373.17 540.00 C 373.18 497.58 373.30 455.16 373.11 412.74 C 391.34 413.07 409.58 412.75 427.82 412.90 C 445.88 413.33 463.94 412.97 482.00 413.09 C 498.22 413.24 514.44 412.38 530.65 413.06 C 537.42 413.62 544.21 413.40 551.00 413.40 C 576.70 413.48 602.39 413.27 628.09 413.51 C 629.23 413.22 631.18 414.05 631.76 412.64 C 632.16 412.64 632.96 412.64 633.36 412.64 C 637.22 412.20 641.11 412.43 645.00 412.43 C 670.00 412.39 695.00 412.45 720.00 412.40 C 725.45 412.47 730.92 412.61 736.36 412.00 C 742.23 411.62 748.12 411.73 754.00 411.76 C 779.67 411.72 805.34 411.80 831.01 411.71 C 833.95 411.80 836.86 412.33 839.80 412.38 C 840.27 407.27 839.90 402.12 839.99 397.00 C 840.00 264.67 839.98 132.33 840.00 0.00 Z" />
</g>
<g id="#cbcbcbff">
<path fill="#cbcbcb" opacity="1.00" d=" M 120.00 0.00 L 223.20 0.00 C 223.41 136.30 223.14 272.62 223.33 408.91 C 222.92 411.71 225.95 411.85 227.94 411.78 C 257.97 411.62 288.00 411.85 318.03 411.66 C 320.24 411.79 322.40 412.33 324.61 412.57 C 321.78 413.15 318.94 413.80 316.04 413.76 C 292.74 413.43 269.43 413.92 246.14 413.51 C 240.81 412.55 235.39 412.68 230.00 412.80 C 193.42 412.67 156.82 412.96 120.26 412.66 C 119.71 408.13 120.04 403.55 120.00 399.00 C 120.01 266.00 120.00 133.00 120.00 0.00 Z" />
</g>
<g id="#ffff01ff">
<path fill="#ffff01" opacity="1.00" d=" M 223.20 0.00 L 324.78 0.00 C 324.60 132.33 324.78 264.66 324.69 396.99 C 324.73 401.94 324.20 406.96 325.17 411.85 C 330.69 413.05 336.39 412.29 342.00 412.45 C 352.37 412.61 362.75 412.11 373.11 412.74 C 356.95 412.37 340.77 412.74 324.61 412.57 C 322.40 412.33 320.24 411.79 318.03 411.66 C 288.00 411.85 257.97 411.62 227.94 411.78 C 225.95 411.85 222.92 411.71 223.33 408.91 C 223.14 272.62 223.41 136.30 223.20 0.00 Z" />
</g>
<g id="#0bffffff">
<path fill="#0bffff" opacity="1.00" d=" M 324.78 0.00 L 427.69 0.00 C 427.47 128.00 427.66 256.00 427.60 384.00 C 427.69 393.63 427.37 403.27 427.82 412.90 C 409.58 412.75 391.34 413.07 373.11 412.74 C 362.75 412.11 352.37 412.61 342.00 412.45 C 336.39 412.29 330.69 413.05 325.17 411.85 C 324.20 406.96 324.73 401.94 324.69 396.99 C 324.78 264.66 324.60 132.33 324.78 0.00 Z" />
</g>
<g id="#04ff00ff">
<path fill="#04ff00" opacity="1.00" d=" M 427.69 0.00 L 530.69 0.00 C 530.54 137.69 530.64 275.37 530.65 413.06 C 514.44 412.38 498.22 413.24 482.00 413.09 C 463.94 412.97 445.88 413.33 427.82 412.90 C 427.37 403.27 427.69 393.63 427.60 384.00 C 427.66 256.00 427.47 128.00 427.69 0.00 Z" />
</g>
<g id="#ff01ffff">
<path fill="#ff01ff" opacity="1.00" d=" M 530.69 0.00 L 632.82 0.00 C 632.65 132.67 632.81 265.33 632.73 398.00 C 632.64 402.88 632.67 407.79 633.36 412.64 C 632.96 412.64 632.16 412.64 631.76 412.64 C 631.18 414.05 629.23 413.22 628.09 413.51 C 602.39 413.27 576.70 413.48 551.00 413.40 C 544.21 413.40 537.42 413.62 530.65 413.06 C 530.64 275.37 530.54 137.69 530.69 0.00 Z" />
</g>
<g id="#f50000ff">
<path fill="#f50000" opacity="1.00" d=" M 632.82 0.00 L 736.17 0.00 C 736.25 109.33 736.18 218.67 736.20 328.00 C 736.31 356.00 736.00 384.01 736.36 412.00 C 730.92 412.61 725.45 412.47 720.00 412.40 C 695.00 412.45 670.00 412.39 645.00 412.43 C 641.11 412.43 637.22 412.20 633.36 412.64 C 632.67 407.79 632.64 402.88 632.73 398.00 C 632.81 265.33 632.65 132.67 632.82 0.00 Z" />
</g>
<g id="#0000feff">
<path fill="#0000fe" opacity="1.00" d=" M 736.17 0.00 L 840.00 0.00 C 839.98 132.33 840.00 264.67 839.99 397.00 C 839.90 402.12 840.27 407.27 839.80 412.38 C 836.86 412.33 833.95 411.80 831.01 411.71 C 805.34 411.80 779.67 411.72 754.00 411.76 C 748.12 411.73 742.23 411.62 736.36 412.00 C 736.00 384.01 736.31 356.00 736.20 328.00 C 736.18 218.67 736.25 109.33 736.17 0.00 Z" />
</g>
<g id="#ffffffff">
<path fill="#ffffff" opacity="1.00" d=" M 316.04 413.76 C 318.94 413.80 321.78 413.15 324.61 412.57 C 340.77 412.74 356.95 412.37 373.11 412.74 C 373.30 455.16 373.18 497.58 373.17 540.00 L 245.78 540.00 C 245.69 503.33 245.78 466.67 245.74 430.00 C 245.69 424.50 245.63 418.99 246.14 413.51 C 269.43 413.92 292.74 413.43 316.04 413.76 Z" />
</g>
</svg>
